/* XPM */
static char * emblem_mail_xpm[] = {
"16 16 22 1",
" 	c None",
".	c #FFFFFF",
"+	c #F1F1F1",
"@	c #DBDBDB",
"#	c #F2F2F2",
"$	c #E4E4E4",
"%	c #555555",
"&	c #E3E3E3",
"*	c #414141",
"=	c #E2E2E2",
"-	c #5C5C5C",
";	c #3C3C3C",
">	c #E0E0E0",
",	c #636363",
"'	c #FBFBFB",
")	c #6B6B6B",
"!	c #7A7A7A",
"~	c #DDDDDD",
"{	c #737373",
"]	c #313131",
"^	c #D9D9D9",
"/	c #2D2D2D",
"                ",
"                ",
"                ",
" .+@@@@@@@@@@+. ",
" #$%        %$# ",
" &*=-      -=*& ",
" & ;>,    ,>; & ",
" &  %')  )'%  & ",
" & ;>!~{{~!>; & ",
" &*=- ]^^] -=*& ",
" #$%   //   %$# ",
" .+@@@@@@@@@@+. ",
"                ",
"                ",
"                ",
"                "};
