/* XPM */
static char * audio_x_generic_xpm[] = {
"16 16 37 1",
" 	c None",
".	c #444444",
"+	c #606060",
"@	c #7C7C7C",
"#	c #999999",
"$	c #B5B5B5",
"%	c #D1D1D1",
"&	c #484848",
"*	c #C9C9C9",
"=	c #FFFFFF",
"-	c #FCFCFC",
";	c #E1E1E1",
">	c #F0F0F0",
",	c #4F4F4F",
"'	c #939393",
")	c #5D5D5D",
"!	c #3D3D3D",
"~	c #BBBBBB",
"{	c #424242",
"]	c #4A4A4A",
"^	c #464646",
"/	c #C4C4C4",
"(	c #4B4B4B",
"_	c #8C8C8C",
":	c #969696",
"<	c #E2E2E2",
"[	c #3B3B3B",
"}	c #E8E8E8",
"|	c #393939",
"1	c #929292",
"2	c #6D6D6D",
"3	c #F8F8F8",
"4	c #DBDBDB",
"5	c #707070",
"6	c #D6D6D6",
"7	c #9B9B9B",
"8	c #373737",
"                ",
"                ",
"                ",
"       .+@#$%&  ",
"      *===-;>,  ",
"      *')!  ~,  ",
"      *{    ~,  ",
"      *{    ~]  ",
"      *{    ~{  ",
"      *{  {^/{  ",
"   (_:<[&}===|  ",
"  1===> 23=45   ",
"  @6%78         ",
"                ",
"                ",
"                "};
