/* XPM */
static char * pause_xpm[] = {
"16 16 7 1",
" 	c None",
".	c #F6F6F6",
"+	c #FFFFFF",
"@	c #B3B3B3",
"#	c #B6B6B6",
"$	c #F4F4F4",
"%	c #BFBFBF",
"                ",
" .++++@  #++++$ ",
" +++++%  %+++++ ",
" +++++%  %+++++ ",
" +++++%  %+++++ ",
" +++++%  %+++++ ",
" +++++%  %+++++ ",
" +++++%  %+++++ ",
" +++++%  %+++++ ",
" +++++%  %+++++ ",
" +++++%  %+++++ ",
" +++++%  %+++++ ",
" +++++%  %+++++ ",
" +++++%  %+++++ ",
" $++++@  @++++$ ",
"                "};
