/* XPM */
static char * play_xpm[] = {
"16 16 16 1",
" 	c None",
".	c #DADADA",
"+	c #676767",
"@	c #FFFFFF",
"#	c #CFCFCF",
"$	c #525252",
"%	c #BBBBBB",
"&	c #404040",
"*	c #FDFDFD",
"=	c #A6A6A6",
"-	c #323232",
";	c #F6F6F6",
">	c #929292",
",	c #EDEDED",
"'	c #7D7D7D",
")	c #BFBFBF",
"                ",
"  .+            ",
"  @@#$          ",
"  @@@@%&        ",
"  @@@@@*=-      ",
"  @@@@@@@;>     ",
"  @@@@@@@@@,'   ",
"  @@@@@@@@@@@)  ",
"  @@@@@@@@@,'   ",
"  @@@@@@@;>     ",
"  @@@@@*=-      ",
"  @@@@%&        ",
"  @@#$          ",
"  .+            ",
"                ",
"                "};
