/* XPM */
static char * random_xpm[] = {
"16 16 27 1",
" 	c None",
".	c #313131",
"+	c #696969",
"@	c #CBCBCB",
"#	c #F2F2F2",
"$	c #3D3D3D",
"%	c #E1E1E1",
"&	c #FFFFFF",
"*	c #DFDFDF",
"=	c #7E7E7E",
"-	c #D2D2D2",
";	c #F7F7F7",
">	c #464646",
",	c #C6C6C6",
"'	c #AAAAAA",
")	c #575757",
"!	c #8C8C8C",
"~	c #989898",
"{	c #454545",
"]	c #949494",
"^	c #EFEFEF",
"/	c #3C3C3C",
"(	c #5A5A5A",
"_	c #D6D6D6",
":	c #565656",
"<	c #F1F1F1",
"[	c #858585",
"                ",
"  .+++++@#$     ",
"  %&&&&&&&@     ",
"  &*====-;>     ",
"  &,    ')      ",
"  &, )!!~!!!{   ",
"  &, ]&&&&&&^   ",
"  &, /(((((_&   ",
"  &_((((:  ,&   ",
"  ^&&&&&<  ,&   ",
"  {!!!~![  ,&   ",
"     )'    ,&   ",
"    >;-====*&   ",
"    @&&&&&&&%   ",
"    $#@+++++.   ",
"                "};
