/* XPM */
static char * repeat_xpm[] = {
"16 16 18 1",
" 	c None",
".	c #E3E3E3",
"+	c #DADADA",
"@	c #3D3D3D",
"#	c #343434",
"$	c #777777",
"%	c #EEEEEE",
"&	c #FFFFFF",
"*	c #F7F7F7",
"=	c #A2A2A2",
"-	c #E5E5E5",
";	c #D4D4D4",
">	c #969696",
",	c #B7B7B7",
"'	c #2D2D2D",
")	c #D6D6D6",
"!	c #838383",
"~	c #E8E8E8",
"                ",
"         .+@    ",
" #$$$$$$$%&*=$# ",
" .&&&&&&&&&&&&. ",
" &-$$$$$$%&*=-& ",
" &;      .+@ ;& ",
" &;      >   ;& ",
" &;          ;& ",
" &;   ,      ;& ",
" &; ').      ;& ",
" &-!~&%$$$$$$-& ",
" .&&&&&&&&&&&&. ",
" #$!~&%$$$$$$$# ",
"    ').         ",
"                ",
"                "};
