/* XPM */
static char * audio_volume_high_xpm[] = {
"16 16 47 1",
" 	c None",
".	c #8A8A8A",
"+	c #606060",
"@	c #B2B2B2",
"#	c #343434",
"$	c #242424",
"%	c #CBCBCB",
"&	c #B8B8B8",
"*	c #E4E4E4",
"=	c #CCCCCC",
"-	c #727272",
";	c #7A7A7A",
">	c #A0A0A0",
",	c #FFFFFF",
"'	c #5B5B5B",
")	c #6C6C6C",
"!	c #7E7E7E",
"~	c #232323",
"{	c #BBBBBB",
"]	c #323232",
"^	c #A3A3A3",
"/	c #B6B6B6",
"(	c #737373",
"_	c #222222",
":	c #BCBCBC",
"<	c #1A1A1A",
"[	c #C1C1C1",
"}	c #424242",
"|	c #B4B4B4",
"1	c #BFBFBF",
"2	c #B3B3B3",
"3	c #C0C0C0",
"4	c #707070",
"5	c #818181",
"6	c #202020",
"7	c #BEBEBE",
"8	c #656565",
"9	c #696969",
"0	c #808080",
"a	c #BDBDBD",
"b	c #C3C3C3",
"c	c #252525",
"d	c #6F6F6F",
"e	c #7B7B7B",
"f	c #3B3B3B",
"g	c #CACACA",
"h	c #858585",
"                ",
"                ",
"           .+   ",
"      @   #$%   ",
"     &*   =$-;  ",
"    >,* ' )!~{  ",
" ]^/,,* (!_:<[  ",
" },,,,*  |<1<2  ",
" },,,,*  /<3<@  ",
" #@3,,* 4567<[  ",
"    >,* 8 90_a  ",
"     b*   =cde  ",
"      {   f_g   ",
"           h8   ",
"                ",
"                "};
