/* XPM */
static char * audio_volume_muted_xpm[] = {
"16 16 22 1",
" 	c None",
".	c #A0A0A0",
"+	c #9E9E9E",
"@	c #3C3C3C",
"#	c #C9C9C9",
"$	c #D6D6D6",
"%	c #4F4F4F",
"&	c #FFFFFF",
"*	c #9F9F9F",
"=	c #4E4E4E",
"-	c #7A7A7A",
";	c #A3A3A3",
">	c #D2D2D2",
",	c #D7D7D7",
"'	c #BBBBBB",
")	c #EDEDED",
"!	c #DFDFDF",
"~	c #A6A6A6",
"{	c #D4D4D4",
"]	c #A1A1A1",
"^	c #4C4C4C",
"/	c #727272",
"                ",
"                ",
"                ",
"      .   +@    ",
"     #$  +%     ",
"    #&$ *=      ",
" -;>&&,+=       ",
" '&&&&)=        ",
" '&&&&!         ",
" -;>&&$         ",
"   ~{&$         ",
"  ]^ #$         ",
" /^   .         ",
"                ",
"                ",
"                "};
